<svg xmlns="http://www.w3.org/2000/svg" width="298" height="298"><rect id="backgroundrect" width="100%" height="100%" x="0" y="0" fill="none" stroke="none" class="" style=""/><defs><style>.cls-1{fill-rule:evenodd;}</style></defs><title>Ресурс 8</title><g class="currentLayer" style=""><title>Layer 1</title><g data-name="Слой 2" id="svg_1" class=""><g data-name="1" id="svg_2"><path class="cls-1" d="M0,137.82181122869252 v6.69 c0,67.44 66.84,122.31 149,122.31 a182.16,182.16 0 0 0 23.9,-1.57 a170.24,170.24 0 0 0 49.69,-14.5 c15.95,-7.46 30.06,-16.94 41.63,-28.93 h0 a113.86,113.86 0 0 0 27.52,-42.31 a101.79,101.79 0 0 0 6,-28 c0.16000000000000153,-2.31 0.2400000000000002,-4.61 0.2400000000000002,-7 v-6.69 zm203.8,89.54 A7,7 0 0 1 201,214.00181122869253 c19.07,-8.37 34.41,-21 44.35,-36.44 a7,7 0 0 1 11.78,7.57 c-11.44,17.8 -28.9,32.21 -50.5,41.69 a7,7 0 0 1 -2.81,0.5900000000000006 zM184.43,104.76181122869254 a7,7 0 0 1 -4.05,-12.71 l1,-0.7100000000000006 a11.42,11.42 0 0 0 5.12,-9.14 a11.23,11.23 0 0 0 -4.94,-9.2 l-1.78,-1.31 a25.14,25.14 0 0 1 -10.64,-21 a25.31,25.31 0 0 1 11.7,-20.56 a7,7 0 1 1 7.76,11.65 a11.5,11.5 0 0 0 -5.46,9.23 a11.33,11.33 0 0 0 4.94,9.35 l1.78,1.31 a24.85,24.85 0 0 1 -0.3800000000000028,41 l-1,0.7100000000000006 a7,7 0 0 1 -4,1.29 zm-71.84,2 a7,7 0 0 1 -4.05,-12.71 l1,-0.7100000000000006 a11.42,11.42 0 0 0 5.12,-9.14 a11.23,11.23 0 0 0 -4.94,-9.2 l-1.78,-1.31 a25.14,25.14 0 0 1 -10.64,-21 A25.31,25.31 0 0 1 109,32.201811228692534 a7,7 0 0 1 7.76,11.65 a11.5,11.5 0 0 0 -5.46,9.23 a11.33,11.33 0 0 0 4.94,9.35 L118,63.74181122869254 a24.86,24.86 0 0 1 -0.3800000000000028,41 l-1,0.7100000000000006 a7,7 0 0 1 -4,1.29 zm36,0 a7,7 0 0 1 -4.05,-12.71 l1,-0.7100000000000006 a11.41,11.41 0 0 0 5.12,-9.14 a11.23,11.23 0 0 0 -4.94,-9.2 L144,73.71181122869254 a25.14,25.14 0 0 1 -10.64,-21 A25.31,25.31 0 0 1 145,32.201811228692534 a7,7 0 1 1 7.76,11.65 a11.5,11.5 0 0 0 -5.46,9.23 a11.33,11.33 0 0 0 4.94,9.35 L154,63.74181122869254 a24.86,24.86 0 0 1 -0.3800000000000028,41 l-1,0.7100000000000006 a7,7 0 0 1 -4,1.29 zM256,210.64181122869252 h0 A119.2,119.2 0 0 1 244.62,221.00181122869253 c-19.11,15.42 -44,26.2 -71.72,30.19 a165.83,165.83 0 0 1 -23.9,1.6900000000000008 A166.5,166.5 0 0 1 123.21,251.00181122869253 c-59.37,-9.24 -105,-50.17 -108.93,-99.17 H283.72 C282,173.82181122869252 271.88,194.09181122869253 256,210.64181122869252 z" id="svg_3"/></g></g></g></svg>