<svg xmlns="http://www.w3.org/2000/svg" width="234" height="234"><rect id="backgroundrect" width="100%" height="100%" x="0" y="0" fill="none" stroke="none" class="" style=""/><defs><style>.cls-1{fill-rule:evenodd;}</style></defs><title>Ресурс 24</title><g class="currentLayer" style=""><title>Layer 1</title><g data-name="Слой 2" id="svg_1" class=""><g data-name="1" id="svg_2"><path class="cls-1" d="M83.73118591308594,188.70648762367665 a7,7 0 0 1 -1.7000000000000002,-0.21000000000000008 c-27.44,-6.86 -38,-38.28 -38.45,-39.61 a7,7 0 0 1 13.3,-4.37 c0.15000000000000008,0.45 8.75,25.45 28.55,30.4 A7,7 0 0 1 83.73118591308594,188.70648762367665 zM2.7311859130859375,104.63648762367666 c0,0.29000000000000015 0,0.5700000000000003 0,0.8600000000000003 c0,0.6400000000000003 0,1.29 0.05000000000000003,1.9300000000000002 c0,0.35000000000000014 0,0.6900000000000006 0,1 q0,0.8800000000000003 0.08000000000000004,1.7600000000000002 q0,0.54 0.06000000000000003,1.07 q0.05000000000000003,0.8700000000000003 0.12000000000000002,1.7400000000000002 c0,0.3400000000000003 0,0.6900000000000006 0.08000000000000004,1 c0,0.6300000000000003 0.1,1.25 0.1600000000000001,1.87 c0,0.29000000000000015 0,0.5800000000000003 0.08000000000000004,0.8600000000000003 Q3.571185913085938,118.13648762367666 3.7311859130859375,119.49648762367666 v0 H3.7311859130859375 q0.15000000000000008,1.34 0.3300000000000002,2.68 c0,0.30000000000000016 0.08000000000000004,0.6000000000000003 0.12000000000000002,0.9 c0.08000000000000004,0.6000000000000003 0.17,1.2 0.26,1.79 c0.05000000000000003,0.3400000000000003 0.1,0.6800000000000006 0.1600000000000001,1 q0.13,0.8200000000000003 0.27,1.6500000000000006 l0.18000000000000008,1.06 q0.14,0.81 0.29000000000000015,1.61 l0.2,1 q0.17,0.8600000000000003 0.3400000000000003,1.71 l0.19000000000000009,0.9 q0.24000000000000007,1.1600000000000001 0.51,2.3 l0.1,0.43000000000000016 q0.28,1.19 0.5700000000000003,2.38 l0.23,0.8900000000000003 c0.14,0.55 0.28,1.1 0.43000000000000016,1.6500000000000006 l0.28,1 q0.21000000000000008,0.7500000000000003 0.42000000000000015,1.49 l0.31000000000000016,1 q0.22000000000000008,0.7400000000000003 0.45,1.48 l0.31000000000000016,1 c0.1600000000000001,0.51 0.3300000000000002,1 0.5,1.53 l0.31000000000000016,0.93 q0.35000000000000014,1 0.7200000000000003,2.07 l0.18000000000000008,0.5 q0.3900000000000002,1.09 0.79,2.16 l0.37000000000000016,1 l0.55,1.4100000000000001 l0.42000000000000015,1 l0.54,1.3 l0.44000000000000017,1 l0.55,1.27 l0.46,1 l0.5800000000000003,1.26 l0.47000000000000014,1 c0.24000000000000007,0.51 0.49000000000000016,1 0.7300000000000003,1.52 l0.6100000000000003,1.24 q0.3900000000000002,0.79 0.79,1.57 l0.53,1 l0.6100000000000003,1.15 l0.5800000000000003,1.06 l0.6000000000000003,1.08 l0.6000000000000003,1.05 l0.6300000000000003,1.07 l0.6100000000000003,1 l0.6600000000000005,1.08 l0.6100000000000003,1 l0.7000000000000003,1.09 l1.11,1.6900000000000006 l0.7400000000000003,1.09 l0.7000000000000003,1 l0.6500000000000004,0.93 l0.7500000000000003,1 l0.6400000000000003,0.8700000000000003 l0.77,1 l0.6500000000000004,0.8500000000000003 l0.79,1 l0.6600000000000005,0.8200000000000003 l0.81,1 L33.73118591308594,192.13648762367666 q0.8800000000000003,1 1.77,2.06 l0.5,0.5700000000000003 l0.92,1 l0.6200000000000003,0.6800000000000006 l0.93,1 l0.6400000000000003,0.6700000000000006 l0.9400000000000003,1 l0.6500000000000004,0.6500000000000004 l1,0.9400000000000003 l0.6400000000000003,0.6100000000000003 l1,0.9400000000000003 l0.47000000000000014,0.43000000000000016 q1.19,1.09 2.41,2.13 l0.31000000000000016,0.27 l1.12,0.93 l0.5900000000000003,0.48000000000000015 l1.11,0.8800000000000003 l0.6200000000000003,0.49000000000000016 l1.09,0.8400000000000003 l0.6700000000000006,0.5 l1.12,0.8200000000000003 l0.5900000000000003,0.42000000000000015 l1.21,0.8400000000000003 l0.3400000000000003,0.23 q2.15,1.46 4.37,2.7800000000000002 l0.6100000000000003,0.36000000000000015 l1.21,0.7000000000000003 l0.6500000000000004,0.37000000000000016 l1.24,0.6800000000000006 l0.6400000000000003,0.3400000000000003 l1.26,0.6500000000000004 l0.6000000000000003,0.30000000000000016 l1.34,0.6500000000000004 l0.27,0.12000000000000002 q1.6900000000000006,0.79 3.4,1.51 H27.40118591308594 a7,7 0 0 0 0,14 H170.73118591308594 a7,7 0 0 0 0,-14 H132.95118591308594 l0.6100000000000003,-0.26 l0.46,-0.2 h0 l0.55,-0.24000000000000007 h0 l0.42000000000000015,-0.19000000000000009 l0.6500000000000004,-0.29000000000000015 l0.36000000000000015,-0.17 l0.47000000000000014,-0.22000000000000008 l0.6000000000000003,-0.29000000000000015 l0.3900000000000002,-0.19000000000000009 l0.55,-0.27 l0.5,-0.25 l0.42000000000000015,-0.22000000000000008 l0.54,-0.28 l0.44000000000000017,-0.23 l0.6100000000000003,-0.3300000000000002 l0.37000000000000016,-0.2 l0.5700000000000003,-0.31000000000000016 l0.44000000000000017,-0.25 l0.47000000000000014,-0.27 l0.48000000000000015,-0.28 l0.53,-0.31000000000000016 l0.35000000000000014,-0.21000000000000008 l0.6100000000000003,-0.36000000000000015 l0.31000000000000016,-0.19000000000000009 l0.6800000000000006,-0.42000000000000015 l0.25,-0.1600000000000001 l0.6800000000000006,-0.43000000000000016 l0.30000000000000016,-0.19000000000000009 l0.6900000000000006,-0.44000000000000017 l0.24000000000000007,-0.1600000000000001 l0.7300000000000003,-0.49000000000000016 l0.19000000000000009,-0.13 l0.6700000000000006,-0.45 l0.18000000000000008,-0.12000000000000002 l0.7100000000000003,-0.49000000000000016 l0.23,-0.1600000000000001 l0.7100000000000003,-0.51 l0.2,-0.14 l0.7100000000000003,-0.52 l0.25,-0.19000000000000009 l0.7100000000000003,-0.53 l0.15000000000000008,-0.11000000000000004 l0.7600000000000003,-0.5900000000000003 l0.15000000000000008,-0.11000000000000004 l0.7200000000000003,-0.5700000000000003 l0.07,-0.05000000000000003 h0 l0.7500000000000003,-0.6100000000000003 l0.15000000000000008,-0.12000000000000002 l0.7400000000000003,-0.6100000000000003 l0.15000000000000008,-0.13 l0.7300000000000003,-0.6200000000000003 l0.15000000000000008,-0.13 l0.7300000000000003,-0.6300000000000003 l0.14,-0.12000000000000002 l0.7500000000000003,-0.6600000000000005 l0.08000000000000004,-0.07 l0.77,-0.6900000000000006 l0,0 h0 l0.7600000000000003,-0.7000000000000003 l0.09000000000000007,-0.08000000000000004 l0.77,-0.7200000000000003 l0.07,-0.07 l0.7400000000000003,-0.7200000000000003 l0.12000000000000002,-0.12000000000000002 l0.7000000000000003,-0.6900000000000006 l0.13,-0.13 l0.7300000000000003,-0.7300000000000003 l0,0 l0.78,-0.8 c24,-0.06000000000000003 60,-12.33 65.78,-47 c3.15,-18.78 -3.29,-28.87 -9.25,-34 a31.55,31.55 0 0 0 -20.77,-7.24 c0.12000000000000002,-2.51 0.19000000000000009,-5 0.19000000000000009,-7.59 V95.20648762367665 H2.7311859130859375 v6.62 q0,1.4100000000000001 0,2.81 zm119.2,-28.74 a7,7 0 0 1 -4.05,-12.71 l1,-0.7100000000000003 a11.41,11.41 0 0 0 5.12,-9.14 a11.23,11.23 0 0 0 -4.94,-9.2 l-1.78,-1.31 a25.14,25.14 0 0 1 -10.64,-21 a25.31,25.31 0 0 1 11.7,-20.56 a7,7 0 0 1 7.76,11.65 a11.5,11.5 0 0 0 -5.46,9.23 a11.33,11.33 0 0 0 4.94,9.35 l1.78,1.31 a24.86,24.86 0 0 1 -0.38000000000000017,41 l-1,0.7100000000000003 a7,7 0 0 1 -4,1.29 zm36,0 a7,7 0 0 1 -4.05,-12.71 l1,-0.7100000000000003 a11.41,11.41 0 0 0 5.12,-9.14 a11.23,11.23 0 0 0 -4.94,-9.2 l-1.78,-1.31 a25.14,25.14 0 0 1 -10.64,-21 a25.31,25.31 0 0 1 11.7,-20.56 a7,7 0 1 1 7.76,11.65 A11.5,11.5 0 0 0 156.73118591308594,22.196487623676656 a11.33,11.33 0 0 0 4.94,9.35 l1.78,1.31 a24.85,24.85 0 0 1 -0.38000000000000017,41 l-1,0.7100000000000003 a7,7 0 0 1 -4,1.29 zm-43,135.14 c38.82,-7.94 69,-50.83 71.49,-101.83 H16.961185913085938 C19.731185913085938,166.20648762367665 56.73118591308594,212.48648762367665 101.73118591308594,212.48648762367665 a65.08,65.08 0 0 0 13.28,-1.45 zM216.73118591308594,148.35648762367666 h0 c-2,11.76 -8.870000000000001,21 -20.5,27.39 a65.52,65.52 0 0 1 -19.23,6.73 c11.22,-16.52 19.07,-36.74 22.2,-59 c3.94,-0.31000000000000016 9.19,0.55 12.93,3.77 C218.03118591308595,132.32648762367666 217.90118591308592,141.53648762367666 216.73118591308594,148.35648762367666 z" id="svg_3"/></g></g></g></svg>