<svg xmlns="http://www.w3.org/2000/svg" xmlns:xlink="http://www.w3.org/1999/xlink" version="1.1" width="100" height="100" style=""><rect id="backgroundrect" width="100%" height="100%" x="0" y="0" fill="none" stroke="none" class="" style=""/><title>35</title><desc>Created with Sketch.</desc><g class="currentLayer" style=""><title>Layer 1</title><g stroke="none" stroke-width="1" fill="none" fill-rule="evenodd" id="svg_1" class=""><g fill="#000000" id="svg_2"><path d="M73.98344712116547,57.2748627 C73.98344712116547,59.0311373 72.55916982116547,60.4599608 70.80848342116546,60.4599608 L37.235256221165464,60.4599608 C35.484569821165465,60.4599608 34.060292521165465,59.0311373 34.060292521165465,57.2748627 L34.060292521165465,56.3576078 C34.060292521165465,55.9989804 34.35112892116547,55.7072157 34.70881072116546,55.7072157 L73.33512432116547,55.7072157 C73.69261072116547,55.7072157 73.98344712116547,55.9989804 73.98344712116547,56.3576078 L73.98344712116547,57.2748627 zM34.05423342116546,30.8064314 C34.76099712116547,28.5356471 36.24684252116547,25.2813333 39.311178921165464,22.6732941 C42.88545622116547,19.6317255 47.83475622116546,18.0893725 54.02186982116547,18.0893725 C60.20898342116546,18.0893725 65.15847892116547,19.6317255 68.73256072116547,22.6732941 C71.79689712116547,25.2813333 73.28274252116546,28.5356471 73.98950622116547,30.8064314 L73.98970162116547,30.8064314 C74.21232432116547,31.5215294 73.90116072116547,32.1340784 73.73424252116547,32.253098 L34.309692521165466,32.253098 C34.142578921165466,32.1338824 33.83161072116547,31.5215294 34.05423342116546,30.8064314 L34.05423342116546,30.8064314 zM74.72988802116546,36.1746667 C75.17571982116547,36.1746667 75.53828802116547,36.5383922 75.53828802116547,36.9856471 L75.53828802116547,37.6409412 C75.53828802116547,38.0881961 75.17571982116547,38.4521176 74.72988802116546,38.4521176 L33.31385162116547,38.4521176 C32.868215221165464,38.4521176 32.50545162116546,38.0881961 32.50545162116546,37.6409412 L32.50545162116546,36.9856471 C32.50545162116546,36.5383922 32.868215221165464,36.1746667 33.31385162116547,36.1746667 L34.27236072116547,36.1746667 L73.77137892116546,36.1746667 L74.72988802116546,36.1746667 zM36.431547121165465,49.6750588 C37.17622892116547,49.6232941 37.909965221165464,49.4848627 38.615360721165466,49.2670196 C38.69901522116547,49.2419216 38.782278921165464,49.2156471 38.865542521165466,49.1881961 C38.87941982116546,49.1834902 38.89368802116547,49.1787843 38.90776072116547,49.1740784 C39.86294712116547,48.8525098 40.79409252116547,48.3750588 41.63200622116547,47.7164314 C41.779769821165466,47.8268235 41.937892521165466,47.9387843 42.106569821165465,48.0503529 C43.83653802116547,49.1946667 45.928097121165465,49.7995686 48.154910721165464,49.7995686 C50.818174321165465,49.7995686 52.743988021165464,48.9383922 54.02186982116547,47.9293725 C55.29975162116547,48.9383922 57.225760721165464,49.7995686 59.889024321165465,49.7995686 C60.056919821165465,49.7995686 60.22383802116546,49.7950588 60.389778921165465,49.788 C60.44489712116547,49.7860392 60.49903802116547,49.7827059 60.55356982116547,49.7797647 C60.657747121165464,49.7740784 60.761728921165464,49.7670196 60.865319821165464,49.7585882 C60.93431522116547,49.753098 61.003506221165466,49.7474118 61.07152432116547,49.7407451 C61.15205162116547,49.732902 61.231992521165466,49.723098 61.31212892116547,49.7134902 C61.51090622116546,49.6897647 61.70636072116547,49.6623137 61.89614712116547,49.6297647 C61.90806982116547,49.6276078 61.920188021165465,49.6260392 61.932110721165465,49.6238824 C62.033942521165464,49.6060392 62.13362432116546,49.5860392 62.23311072116547,49.5658431 C62.27708802116547,49.5566275 62.321260721165466,49.5481961 62.36504252116546,49.5385882 C62.45749252116546,49.518588199999996 62.54857432116547,49.4974118 62.638678921165464,49.475451 C62.692038021165466,49.4623137 62.745201621165464,49.4489804 62.798169821165466,49.4352549 C62.87811072116546,49.4144706 62.957465221165464,49.3934902 63.03525622116547,49.3713333 C63.10894252116547,49.350549 63.18184712116547,49.3283922 63.25475162116547,49.3060392 C63.309869821165464,49.2891765 63.36518342116547,49.2727059 63.41893342116547,49.2552549 C64.31724252116547,48.9650588 65.16356072116547,48.5621176 65.93716982116547,48.0503529 C66.10584712116547,47.9387843 66.26396982116546,47.8268235 66.41153802116547,47.7164314 C67.25179712116547,48.3768235 68.18587432116547,48.8552549 69.14360162116547,49.1766275 C69.15005162116546,49.1787843 69.15630622116547,49.1809412 69.16275622116547,49.183098 C69.25735622116547,49.2148627 69.35254252116546,49.2446667 69.44772892116546,49.273098 C70.14726072116547,49.4874118 70.87454712116546,49.6236863 71.61219252116547,49.6748627 L71.61219252116547,51.7856471 L36.431547121165465,51.7856471 L36.431547121165465,49.6750588 zM75.16907432116547,44.5146667 C74.89563342116547,45.0797647 74.17655622116547,45.5115294 73.24443342116547,45.6895686 C73.23446522116546,45.6913333 73.22449712116547,45.6915294 73.21433342116546,45.6934902 C71.72262432116547,45.9683922 69.60194252116547,45.5756471 68.26913802116546,44.1142745 C68.26737892116546,44.1123137 68.26522892116547,44.1103529 68.26327432116547,44.1085882 C68.17473342116547,44.0109412 68.08971072116546,43.9085882 68.00840162116546,43.8013333 C67.62785162116546,43.2993725 67.05086982116546,42.9897647 66.41740162116547,43.0052549 C65.94928802116547,43.0174118 65.51518342116546,43.1848627 65.17802432116547,43.4850588 C65.06583342116546,43.5852549 64.96400162116547,43.7001569 64.87546072116547,43.8287843 C64.86646982116547,43.8401569 64.85181072116546,43.8581961 64.83187432116547,43.8817255 C64.81701982116546,43.8991765 64.79591072116547,43.9227059 64.77519252116547,43.9458431 C64.76756982116547,43.9542745 64.76268342116546,43.9601569 64.75427892116547,43.9693725 C64.74548342116546,43.9787843 64.73277892116546,43.9917255 64.72300622116546,44.0021176 C64.69095162116547,44.0360392 64.65459712116547,44.0732941 64.61316072116547,44.1146667 C64.03441982116547,44.6862353 62.51436982116547,45.8778039 59.889024321165465,45.8778039 C56.920656221165466,45.8778039 55.902924321165465,44.3346667 55.776269821165464,44.120549 C55.468624321165464,43.4017255 54.80349252116547,42.9346667 54.02186982116547,42.9346667 C53.24024712116547,42.9346667 52.57511522116547,43.4017255 52.267665221165466,44.1207451 C52.168765221165465,44.2878039 51.52669712116547,45.2644706 49.83855622116547,45.6852549 C49.83386522116547,45.6862353 49.829369821165464,45.6872157 49.824678921165464,45.6883922 C49.76350162116547,45.7034902 49.70056522116547,45.718 49.63645622116547,45.7315294 C49.62414252116547,45.7342745 49.611633421165465,45.7364314 49.599319821165466,45.7389804 C49.54068342116547,45.7511373 49.48146072116547,45.762509800000004 49.420283421165465,45.7732941 C49.40210622116547,45.7762353 49.38334252116547,45.7793725 49.36496982116547,45.7823137 C49.30828802116547,45.7917255 49.251019821165464,45.8007451 49.192188021165464,45.8087843 C49.167951621165464,45.8123137 49.142738021165464,45.8150588 49.11830622116547,45.8181961 C49.06299252116547,45.8252549 49.007678921165464,45.8323137 48.95080162116547,45.8381961 C48.922069821165465,45.8409412 48.892751621165466,45.843098 48.863628921165464,45.8458431 C48.808315221165465,45.8507451 48.753392521165466,45.8560392 48.69631982116547,45.8597647 C48.66582892116546,45.8619216 48.633969821165465,45.862902 48.602892521165465,45.8648627 C48.54542892116547,45.8678039 48.48835622116547,45.8713333 48.429328921165464,45.8732941 C48.40919712116547,45.8738824 48.388088021165466,45.8736863 48.36776072116547,45.8742745 C48.297788021165466,45.8760392 48.227424321165465,45.8778039 48.154910721165464,45.8778039 C45.486956221165464,45.8778039 43.957915221165464,44.6456471 43.40067432116547,44.085451 C43.272260721165466,43.9564314 43.19525162116547,43.863098 43.16827892116547,43.8287843 C42.813724321165466,43.3138824 42.250619821165465,43.0215294 41.626338021165466,43.0052549 C41.470365221165466,43.0009412 41.31673802116546,43.0176078 41.167606221165464,43.0525098 C40.719428921165466,43.1562353 40.321288021165465,43.4238824 40.03553342116547,43.8013333 C39.95422432116547,43.9085882 39.869201621165466,44.0107451 39.78066072116547,44.1081961 C39.77772892116547,44.1115294 39.774406221165464,44.1142745 39.77147432116546,44.1174118 C38.43906072116547,45.5760392 36.322483421165465,45.9668235 34.82921072116547,45.6934902 C34.81943802116547,45.6917255 34.80966522116547,45.6913333 34.799697121165465,45.6897647 C33.86757432116546,45.5117255 33.148301621165466,45.0797647 32.874665221165465,44.5146667 C32.59692432116547,43.9407451 32.642465221165466,43.5423137 33.043342521165464,43.0446667 C33.26616072116547,42.768 33.55289252116547,42.535451 33.778642521165466,42.3776078 L74.26411982116547,42.3776078 C74.46700162116547,42.518588199999996 74.73125622116547,42.7276078 74.95348802116547,42.988 C75.46069252116547,43.5823137 75.41202432116546,44.0127059 75.16907432116547,44.5146667 L75.16907432116547,44.5146667 zM79.44737892116547,36.9856471 C79.44737892116547,35.4707451 78.73318802116546,34.120549 77.62574252116546,33.2536863 C78.04518802116547,32.1246667 78.09209712116547,30.8297647 77.72112432116546,29.6376078 C76.86014712116547,26.8713333 75.04046522116546,22.8991765 71.26115622116546,19.682705900000002 C66.96115622116547,16.0232941 61.16084712116547,14.167803900000001 54.02186982116547,14.167803900000001 C46.882892521165466,14.167803900000001 41.08258342116547,16.0232941 36.78258342116547,19.682705900000002 C33.00327432116546,22.8991765 31.183592521165465,26.8713333 30.322615221165467,29.6376078 C29.951642521165468,30.8299608 29.998942521165468,32.1248627 30.417997121165467,33.2536863 C29.310551621165466,34.120549 28.596360721165468,35.4707451 28.596360721165468,36.9856471 L28.596360721165468,37.6409412 C28.596360721165468,38.8640784 29.061347121165465,39.980549 29.823228921165466,40.8215294 C28.811947121165467,42.2262353 28.331128921165465,44.105451 29.358438021165465,46.2276078 C29.971578921165467,47.4946667 31.093878921165466,48.4852549 32.52245622116547,49.0789804 L32.52245622116547,52.3472157 C31.110492521165465,53.1250588 30.151201621165466,54.6309412 30.151201621165466,56.3576078 L30.151201621165466,57.2748627 C30.151201621165466,61.1934902 33.32909712116547,64.3815294 37.235256221165464,64.3815294 L70.80848342116546,64.3815294 C74.71464252116547,64.3815294 77.89253802116546,61.1934902 77.89253802116546,57.2748627 L77.89253802116546,56.3576078 C77.89253802116546,54.6309412 76.93324712116546,53.1250588 75.52128342116546,52.3472157 L75.52128342116546,49.0789804 C76.94986072116546,48.4852549 78.07216072116546,47.4946667 78.68549712116547,46.2276078 C79.71261072116546,44.105451 79.23198802116546,42.2262353 78.22051072116547,40.8215294 C78.98239252116547,39.980549 79.44737892116547,38.8640784 79.44737892116547,37.6409412 L79.44737892116547,36.9856471 zM74.28904022116546,74.2011765 C73.99507662116547,74.5541176 73.83402212116546,74.9992157 73.83402212116546,75.4590196 L73.83402212116546,96.0784314 L39.19224482116547,96.0784314 L39.19224482116547,79.1078431 C39.19224482116547,78.5386275 38.94558122116547,77.9972549 38.51636302116547,77.624902 C38.08714482116547,77.252549 37.518176621165466,77.084902 36.956049321165466,77.1676471 L26.097376621165466,78.7529412 C24.879694821165465,78.8727451 23.709117521165467,78.4839216 22.800449321165466,77.6568627 C21.883572121165468,76.8221569 21.383990221165465,75.6782353 21.393958421165465,74.4360784 C21.394740221165467,74.3347059 21.387703921165468,74.2333333 21.372849321165468,74.1329412 L19.360644821165465,60.5092157 C19.218549321165465,59.5478431 18.396076621165466,58.8358824 17.427208421165467,58.8358824 L13.607244821165466,58.8358824 C12.562931221165467,58.8358824 11.625726621165466,58.2952941 11.100540221165467,57.39 C10.574963021165466,56.4845098 10.569294821165466,55.4 11.085099321165467,54.4890196 L18.991822121165466,40.5227451 C19.266631221165465,40.1660784 19.414394821165466,39.7198039 19.398758421165468,39.2566667 C19.383317521165466,38.8005882 19.376085721165467,38.4243137 19.376085721165467,38.0721569 C19.376085721165467,19.2415686 34.647340221165464,3.92156863 53.418013021165464,3.92156863 C72.59073572116547,3.92156863 88.78824932116547,19.5605882 88.78824932116547,38.0721569 C88.78824932116547,49.1021569 82.82590842116547,63.9592157 74.28904022116546,74.2011765 M80.88269932116546,11.1170588 C73.48103122116547,4.05196078 63.47063122116547,0 53.418013021165464,0 C32.491672121165465,0 15.466994821165466,17.0792157 15.466994821165466,38.0721569 C15.466994821165466,38.3015686 15.469535721165466,38.5382353 15.475203921165466,38.7937255 L7.685949361165466,52.5523529 C6.475108451165466,54.6911765 6.488594811165466,57.2370588 7.722108451165466,59.3627451 C8.955426631165466,61.4884314 11.155463021165467,62.757451 13.607244821165466,62.757451 L15.740826621165466,62.757451 L17.485258421165465,74.567451 C17.512231221165468,76.8484314 18.486376621165466,79.025098 20.173735721165468,80.5611765 C21.901163021165466,82.1335294 24.223553921165465,82.895098 26.542035721165465,82.6494118 C26.567835721165466,82.6464706 26.593244821165467,82.6435294 26.618653921165468,82.6396078 L35.283153921165464,81.3747059 L35.283153921165464,98.0392157 C35.283153921165464,99.1221569 36.158203921165466,100 37.237699321165465,100 L75.78856752116546,100 C76.86786752116546,100 77.74311302116547,99.1221569 77.74311302116547,98.0392157 L77.74311302116547,76.1637255 C86.57238122116547,65.2986275 92.69734022116546,49.7411765 92.69734022116546,38.0721569 C92.69734022116546,27.9623529 88.50151752116547,18.3894118 80.88269932116546,11.1170588 " id="svg_3"/></g></g></g></svg>