<svg xmlns="http://www.w3.org/2000/svg" xmlns:xlink="http://www.w3.org/1999/xlink" version="1.1" enable-background="new 0 0 100 100" xml:space="preserve" width="88" height="88" style=""><rect id="backgroundrect" width="100%" height="100%" x="0" y="0" fill="none" stroke="none" class="" style=""/><g class="currentLayer" style=""><title>Layer 1</title><g id="svg_1" class=""><g id="svg_2"><path d="M44,0 C19.7,0 0,19.7 0,44 s19.7,44 44,44 s44,-19.7 44,-44 S68.3,0 44,0 zM9.7,44 C9.7,25 25,9.7 44,9.7 c8.8,0 16.9,3.3 22.9,8.8 L17.8,66.1 C12.7,60.2 9.7,52.4 9.7,44 zM44,78.3 c-9.1,0 -17.3,-3.5 -23.5,-9.3 l49.2,-47.7 c5.3,6 8.6,14 8.6,22.7 C78.3,63 63,78.3 44,78.3 z" id="svg_3"/><path d="M59.599999999999994,22.8 c-1,-1.5 -2.2,-2.5 -3.5,-2.5 c-3.5,0 -6.3,7.3 -6.3,10.7 c0,0.4 0,0.7000000000000001 0.1,1.1 L59.599999999999994,22.8 z" id="svg_4"/><path d="M62.400000000000006,31.299999999999997 l-8.3,8 V45 c-0.30000000000000004,0.4 -0.6000000000000001,0.9 -0.7000000000000001,1.5 l-2,14.9 c-0.30000000000000004,3.5 1.9,6.5 4.7,6.5 c2.8,0 5,-3 4.7,-6.5 l-2.1,-14.9 c-0.1,-0.6000000000000001 -0.30000000000000004,-1.1 -0.7000000000000001,-1.5 v-7 C60.599999999999994,37 62.3,34 62.400000000000006,31.299999999999997 z" id="svg_5"/><path d="M36.9,55.9 L28.5,64 c0.7000000000000001,2.2 2.4,3.8 4.4,3.8 c2.8,0 5,-3 4.7,-6.5 L36.9,55.9 z" id="svg_6"/><path d="M30.4,38.9 H31 V45 c-0.30000000000000004,0.4 -0.6000000000000001,0.9 -0.7000000000000001,1.5 l-0.8,5.4 l6,-5.8 c-0.1,-0.4 -0.30000000000000004,-0.8 -0.6000000000000001,-1.1 v-6.1 h0.6000000000000001 c3.1,0 5.7,-2.3 5.7,-5.2 V22 c0,-1.1 -0.9,-2 -2,-2 c-1.1,0 -2,0.9 -2,2 v11.8 c0,0.6000000000000001 -0.8,1.2 -1.7000000000000002,1.2 H35 V22 c0,-1.1 -0.9,-2 -2,-2 c-1.1,0 -2,0.9 -2,2 v13 h-0.5 c-0.9,0 -1.7000000000000002,-0.6000000000000001 -1.7000000000000002,-1.2 V22 c0,-1.1 -0.9,-2 -2,-2 c-1.1,0 -2,0.9 -2,2 v11.8 C24.7,36.6 27.299999999999997,38.9 30.4,38.9 z" id="svg_7"/></g></g></g></svg>