<svg xmlns="http://www.w3.org/2000/svg" xmlns:xlink="http://www.w3.org/1999/xlink" version="1.0" enable-background="new 0 0 100 100" xml:space="preserve" width="55" height="55" style=""><rect id="backgroundrect" width="100%" height="100%" x="0" y="0" fill="none" stroke="none" class="" style=""/><g class="currentLayer" style=""><title>Layer 1</title><g id="svg_1" class=""><g id="svg_2"><path d="M14.72784121094437,39.72760777080078 c2.2714844000000003,-0.07763670000000006 4.6201172,-0.15722660000000005 6.90625,-1.2368164 c3.0791016,-1.4536133 5.2783203,-4.4038086 6.5351562,-8.7700195 c1.8652344,-6.4799805 -1,-11.9755859 -4.375,-16.9492188 c-2.8974609,-4.2705078 -1.6875,-11.527832 -1.6748047000000001,-11.6005859 c0.09375000000000006,-0.5439453000000002 -0.2705078,-1.0615234 -0.8144530999999998,-1.1557617 c-0.5419922,-0.09570310000000008 -1.0615234,0.2705078 -1.15625,0.8134766 c-0.05761720000000003,0.3291016000000001 -1.3642578,8.121582 1.9912109,13.065918 c3.5830078,5.2822266 5.6533203,9.9008789 4.1074219,15.2729492 c-1.0908203,3.7890625 -2.9306641,6.3173828 -5.4667969,7.5146484000000004 c-1.9130859,0.9033203 -3.9570312000000003,0.9726562 -6.1210938,1.0463867 c-2.9111328,0.0991211000000001 -5.9208984000000004,0.2016602 -8.6796875,2.4003906 c-4.1240234000000004,3.2866211 -4.9296875,8.8837891 -5.1777344,12.8081055 c-0.03515620000000001,0.5512695 0.3837891000000001,1.0263672 0.9345703,1.0610352 c0.021484400000000015,0.001464800000000001 0.042968800000000015,0.0019531000000000017 0.06445310000000003,0.0019531000000000017 c0.5234374999999998,0 0.9638672,-0.4072266000000001 0.9970703,-0.9370117 c0.22363280000000005,-3.5444336 0.9257812000000002,-8.5791016 4.4277344,-11.3696289 C9.468075610944368,39.90680697080078 12.022763110944368,39.81989287080078 14.72784121094437,39.72760777080078 z" id="svg_3"/><path d="M38.96709901094437,23.66657257080078 c-0.5527344000000002,0 -1,0.4477539000000001 -1,1 v7 c0,0.5522461 0.4472656000000001,1 1,1 h5.1669922 c0.5527344000000002,0 1,-0.4477539000000001 1,-1 s-0.4472656000000001,-1 -1,-1 H39.96709901094437 v-6 C39.96709901094437,24.114326470800783 39.519833410944365,23.66657257080078 38.96709901094437,23.66657257080078 z" id="svg_4"/><path d="M51.89385681094437,18.872138970800783 c-2.4667969,-3.6982422 -7.0957031,-6.0917969 -13.0351562,-6.7397461 c-3.4716797,-0.3789062000000002 -6.4609375,-1.3432617 -8.8847656,-2.8671875 c-2.2480469,-1.4135742 -2.3076172,-5.5546875 -2.3398438,-7.7792969 c-0.007812500000000003,-0.5522461 -0.4785156000000001,-0.9760742 -1.0146484,-0.9858398 c-0.5517578000000002,0.007812500000000003 -0.9931640999999998,0.4619141000000001 -0.9853516,1.0141602 c0.037109400000000015,2.6044922 0.10742190000000003,7.4521484000000004 3.2753906,9.4443359 c2.6816406,1.6860352 5.9560547,2.75 9.7324219,3.1621094 c3.0927734,0.3374023000000002 8.7109375,1.5473632999999998 11.5878906,5.8608398 c3.1386719,4.7089844 1.7324219,12.2099609 0.6142578000000002,16.262207 C50.22021181094436,38.503364570800784 49.21886901094436,40.34687047080078 47.96709901094437,41.866096470800784 V36.66657257080078 c0,-0.5522461 -0.4472656000000001,-1 -1,-1 H31.967099010944366 c-0.5527344000000002,0 -1,0.4477539000000001 -1,1 s0.4472656000000001,1 1,1 h3.0380859 c-0.04101560000000002,1.6103516 0.08984380000000003,3.5634766 0.9169922,5.0600586 c0.7138672,1.2939453 1.9814452999999999,1.6948242000000004 3.2265625,1.0249023 c0.6699219000000004,-0.3603516000000001 1.0830078,-0.8955078000000002 1.4482422000000001,-1.3676758 C41.07940371094437,41.75983427080078 41.286434910944365,41.54157257080078 41.71709901094437,41.54157257080078 c0.2050781,0 0.2578125000000001,0.05371090000000002 0.2802734,0.07666020000000005 c0.3671875000000001,0.3759766000000002 0.3310547000000002,1.9067383 0.3076172000000001,2.9194336 c-0.011901900000000003,0.5039062 -0.0204468,0.9968262 -0.007141100000000005,1.4697266 c-4.2857666,1.7938843 -9.4508057,1.9241332999999998 -14.1735229,1.0532227 c-1.6083984,-0.2963867000000002 -3.1865234,-0.8613281 -4.8574219,-1.4589844 c-3.3466797,-1.1972656000000002 -6.8056640999999996,-2.4345703 -10.5654297,-1.3989258000000002 c-3.5566406,0.9794921999999997 -5.6523438000000015,4.3828125 -5.9003906,9.5825195 c-0.026367200000000014,0.5517578000000002 0.3994141000000002,1.0205078 0.9511719000000002,1.046875 c0.016601600000000008,0.0004883000000000002 0.032226600000000015,0.0009766000000000009 0.04882810000000002,0.0009766000000000009 c0.5302734,0 0.9726562,-0.4169922000000001 0.9980469,-0.9521484000000002 c0.1435547,-3.0180664 1.0302734,-6.8125 4.4335938,-7.7504883 c3.1523438,-0.8662109 6.1669922,0.2119141000000001 9.3603516,1.3540039 c1.6728516000000004,0.5986328000000002 3.4013672,1.2172852 5.1679688,1.5429688000000001 c6.1619873,1.1362305 11.0913086,0.6078491000000003 14.9161987,-0.9400024 c0.1317749,0.2894897000000001 0.3026123000000001,0.5508423 0.5339966,0.7700806 c0.5009766,0.4750977 1.1416016,0.722168 1.8066406000000004,0.722168 c0.3701172000000001,0 0.7490234000000002,-0.07666020000000005 1.1152344,-0.234375 C47.22979431094437,48.873603770800784 47.96709901094437,47.796943670800786 47.96709901094437,46.66657257080078 v-1.9157104 c2.4379272,-2.2626953 4.0075073,-5.0861206 4.8046875,-7.9749146 C54.24834901094437,31.42389677080078 55.29522401094437,23.973701470800783 51.89385681094437,18.872138970800783 zM45.96709901094437,43.86157987080078 v2.477478 V46.66657257080078 c0,0.3935547000000002 -0.3232422000000001,0.7124022999999998 -0.6240234000000002,0.8413086000000002 c-0.203125,0.08740230000000003 -0.4990234000000001,0.1416016 -0.7558594000000004,-0.10156250000000003 c-0.04138180000000002,-0.039184600000000014 -0.07666020000000005,-0.09716800000000006 -0.10766600000000005,-0.16784670000000007 c-0.19122310000000006,-0.4360962000000001 -0.19915770000000005,-1.413208 -0.18444820000000012,-2.2340698 c0.002624500000000002,-0.14605710000000005 0.005798300000000002,-0.2877808000000001 0.0089111,-0.4198608000000002 c0.039062500000000014,-1.6645508000000002 0.07910160000000004,-3.3852539 -0.8759766000000002,-4.3637695 C43.12530211094436,39.91071317080078 42.58233341094437,39.54157257080078 41.71709901094437,39.54157257080078 c-1.4501952999999999,0 -2.1738281,0.9360352000000002 -2.7021484,1.6191406000000004 c-0.2783203000000002,0.3598633000000001 -0.5185546999999998,0.6704102000000002 -0.8134766,0.8295898 c-0.23339840000000006,0.12402340000000003 -0.3105469000000001,0.16552730000000007 -0.5292969,-0.23046880000000006 C37.17901311094437,40.866279570800785 36.96026311094437,39.52204137080078 37.00713811094437,37.66657257080078 H45.96709901094437 V43.86157987080078 z" id="svg_5"/><circle cx="33.46709901094437" cy="26.16657257080078" r="1.5" id="svg_6"/><circle cx="46.46709901094437" cy="26.16657257080078" r="1.5" id="svg_7"/></g></g></g></svg>