<svg xmlns="http://www.w3.org/2000/svg" viewBox="0 0 191.76 368.8375" x="0px" y="0px"><defs><style>.cls-1{fill-rule:evenodd;}</style></defs><title>Ресурс 23</title><g data-name="Слой 2"><g data-name="1"><path class="cls-1" d="M191.12,157.94l-.06-.39c-3.09-18.79-12.5-26.25-19.8-29.2a31,31,0,0,0-19.78-.85v-35H65V87a7,7,0,1,0-14,0v5.5H5.48V239.37A43.7,43.7,0,0,0,8,253.66a42.14,42.14,0,0,0,32.94,27.41H7a7,7,0,1,0,0,14H150.33a7,7,0,1,0,0-14H116.51a40,40,0,0,0,17.43-7.22,42.74,42.74,0,0,0,17.54-34.48V220.19c12.41-5.85,25.76-15.87,33.55-29.47a49.16,49.16,0,0,0,6.09-32.78ZM113.24,75.76a7,7,0,0,1-4.05-12.71l1-.71a11.41,11.41,0,0,0,5.12-9.14,11.23,11.23,0,0,0-4.94-9.2l-1.78-1.31A25.14,25.14,0,0,1,98,21.73a25.31,25.31,0,0,1,11.7-20.56,7,7,0,1,1,7.76,11.65A11.5,11.5,0,0,0,112,22.06a11.33,11.33,0,0,0,4.94,9.35l1.78,1.31a24.86,24.86,0,0,1-.38,41l-1,.71a7,7,0,0,1-4,1.29Zm-36,0a7,7,0,0,1-4.05-12.71l1-.71a11.42,11.42,0,0,0,5.12-9.14A11.23,11.23,0,0,0,74.36,44l-1.78-1.31a25.14,25.14,0,0,1-10.64-21A25.31,25.31,0,0,1,73.64,1.17a7,7,0,1,1,7.76,11.65,11.5,11.5,0,0,0-5.46,9.23,11.33,11.33,0,0,0,4.94,9.35l1.78,1.31a24.86,24.86,0,0,1-.38,41l-1,.71a7,7,0,0,1-4,1.29ZM34.48,124.53v55h47v-55H65v-18h72.5V239.37h0c0,15.07-12,28.16-27,28.16H47c-13.06,0-24.12-9.63-26.79-21.91a30.72,30.72,0,0,1-.75-6.25V106.53H51v18Zm33,41h-19v-27h19v27Zm-10,89.37a24.31,24.31,0,0,1-15.69-5.31C35.55,244.36,32.57,236,33,224.78a7,7,0,0,1,14,.51c-.17,4.59.36,10.67,3.81,13.54s9.12,1.89,9.18,1.87a7,7,0,1,1,3,13.67,26.49,26.49,0,0,1-5.48.53Zm109.19-62.53h0a60.4,60.4,0,0,1-15.23,12V142.46c4-1.57,10.05-3,14.63-1.13,7.2,2.91,10,11.67,11.17,18.49C179.21,171.59,175.64,182.54,166.71,192.37Z"/></g></g><text x="0" y="310.07" fill="#000000" font-size="5px" font-weight="bold" font-family="'Helvetica Neue', Helvetica, Arial-Unicode, Arial, Sans-serif">Created by Evgenii Likhachov</text><text x="0" y="315.07" fill="#000000" font-size="5px" font-weight="bold" font-family="'Helvetica Neue', Helvetica, Arial-Unicode, Arial, Sans-serif">from the Noun Project</text></svg>