<svg xmlns="http://www.w3.org/2000/svg" xmlns:xlink="http://www.w3.org/1999/xlink" version="1.0" x="0px" y="0px" viewBox="0 0 100 125" enable-background="new 0 0 100 100" xml:space="preserve"><g><g><path d="M36.7607422,63.0610352c2.2714844-0.0776367,4.6201172-0.1572266,6.90625-1.2368164    c3.0791016-1.4536133,5.2783203-4.4038086,6.5351562-8.7700195c1.8652344-6.4799805-1-11.9755859-4.375-16.9492188    c-2.8974609-4.2705078-1.6875-11.527832-1.6748047-11.6005859c0.09375-0.5439453-0.2705078-1.0615234-0.8144531-1.1557617    c-0.5419922-0.0957031-1.0615234,0.2705078-1.15625,0.8134766c-0.0576172,0.3291016-1.3642578,8.121582,1.9912109,13.065918    c3.5830078,5.2822266,5.6533203,9.9008789,4.1074219,15.2729492c-1.0908203,3.7890625-2.9306641,6.3173828-5.4667969,7.5146484    c-1.9130859,0.9033203-3.9570312,0.9726562-6.1210938,1.0463867c-2.9111328,0.0991211-5.9208984,0.2016602-8.6796875,2.4003906    c-4.1240234,3.2866211-4.9296875,8.8837891-5.1777344,12.8081055c-0.0351562,0.5512695,0.3837891,1.0263672,0.9345703,1.0610352    c0.0214844,0.0014648,0.0429688,0.0019531,0.0644531,0.0019531c0.5234375,0,0.9638672-0.4072266,0.9970703-0.9370117    c0.2236328-3.5444336,0.9257812-8.5791016,4.4277344-11.3696289    C31.5009766,63.2402344,34.0556641,63.1533203,36.7607422,63.0610352z"/><path d="M61,47c-0.5527344,0-1,0.4477539-1,1v7c0,0.5522461,0.4472656,1,1,1h5.1669922c0.5527344,0,1-0.4477539,1-1    s-0.4472656-1-1-1H62v-6C62,47.4477539,61.5527344,47,61,47z"/><path d="M73.9267578,42.2055664c-2.4667969-3.6982422-7.0957031-6.0917969-13.0351562-6.7397461    c-3.4716797-0.3789062-6.4609375-1.3432617-8.8847656-2.8671875c-2.2480469-1.4135742-2.3076172-5.5546875-2.3398438-7.7792969    c-0.0078125-0.5522461-0.4785156-0.9760742-1.0146484-0.9858398c-0.5517578,0.0078125-0.9931641,0.4619141-0.9853516,1.0141602    c0.0371094,2.6044922,0.1074219,7.4521484,3.2753906,9.4443359c2.6816406,1.6860352,5.9560547,2.75,9.7324219,3.1621094    c3.0927734,0.3374023,8.7109375,1.5473633,11.5878906,5.8608398c3.1386719,4.7089844,1.7324219,12.2099609,0.6142578,16.262207    C72.2531128,61.836792,71.25177,63.6802979,70,65.1995239V60c0-0.5522461-0.4472656-1-1-1H54c-0.5527344,0-1,0.4477539-1,1    s0.4472656,1,1,1h3.0380859c-0.0410156,1.6103516,0.0898438,3.5634766,0.9169922,5.0600586    c0.7138672,1.2939453,1.9814453,1.6948242,3.2265625,1.0249023c0.6699219-0.3603516,1.0830078-0.8955078,1.4482422-1.3676758    C63.1123047,65.0932617,63.3193359,64.875,63.75,64.875c0.2050781,0,0.2578125,0.0537109,0.2802734,0.0766602    c0.3671875,0.3759766,0.3310547,1.9067383,0.3076172,2.9194336c-0.0119019,0.5039062-0.0204468,0.9968262-0.0071411,1.4697266    c-4.2857666,1.7938843-9.4508057,1.9241333-14.1735229,1.0532227c-1.6083984-0.2963867-3.1865234-0.8613281-4.8574219-1.4589844    c-3.3466797-1.1972656-6.8056641-2.4345703-10.5654297-1.3989258c-3.5566406,0.9794922-5.6523438,4.3828125-5.9003906,9.5825195    c-0.0263672,0.5517578,0.3994141,1.0205078,0.9511719,1.046875c0.0166016,0.0004883,0.0322266,0.0009766,0.0488281,0.0009766    c0.5302734,0,0.9726562-0.4169922,0.9980469-0.9521484c0.1435547-3.0180664,1.0302734-6.8125,4.4335938-7.7504883    c3.1523438-0.8662109,6.1669922,0.2119141,9.3603516,1.3540039c1.6728516,0.5986328,3.4013672,1.2172852,5.1679688,1.5429688    c6.1619873,1.1362305,11.0913086,0.6078491,14.9161987-0.9400024c0.1317749,0.2894897,0.3026123,0.5508423,0.5339966,0.7700806    c0.5009766,0.4750977,1.1416016,0.722168,1.8066406,0.722168c0.3701172,0,0.7490234-0.0766602,1.1152344-0.234375    C69.2626953,72.2070312,70,71.1303711,70,70v-1.9157104c2.4379272-2.2626953,4.0075073-5.0861206,4.8046875-7.9749146    C76.28125,54.7573242,77.328125,47.3071289,73.9267578,42.2055664z M68,67.1950073v2.477478V70    c0,0.3935547-0.3232422,0.7124023-0.6240234,0.8413086c-0.203125,0.0874023-0.4990234,0.1416016-0.7558594-0.1015625    c-0.0413818-0.0391846-0.0766602-0.097168-0.107666-0.1678467c-0.1912231-0.4360962-0.1991577-1.413208-0.1844482-2.2340698    c0.0026245-0.1460571,0.0057983-0.2877808,0.0089111-0.4198608c0.0390625-1.6645508,0.0791016-3.3852539-0.8759766-4.3637695    C65.1582031,63.2441406,64.6152344,62.875,63.75,62.875c-1.4501953,0-2.1738281,0.9360352-2.7021484,1.6191406    c-0.2783203,0.3598633-0.5185547,0.6704102-0.8134766,0.8295898c-0.2333984,0.1240234-0.3105469,0.1655273-0.5292969-0.2304688    C59.2119141,64.199707,58.9931641,62.8554688,59.0400391,61H68V67.1950073z"/><circle cx="55.5" cy="49.5" r="1.5"/><circle cx="68.5" cy="49.5" r="1.5"/></g></g><text x="0" y="115" fill="#000000" font-size="5px" font-weight="bold" font-family="'Helvetica Neue', Helvetica, Arial-Unicode, Arial, Sans-serif">Created by Yu luck</text><text x="0" y="120" fill="#000000" font-size="5px" font-weight="bold" font-family="'Helvetica Neue', Helvetica, Arial-Unicode, Arial, Sans-serif">from the Noun Project</text></svg>