<svg xmlns="http://www.w3.org/2000/svg" viewBox="0 0 298 297.275" x="0px" y="0px"><defs><style>.cls-1{fill-rule:evenodd;}</style></defs><title>Ресурс 8</title><g data-name="Слой 2"><g data-name="1"><path class="cls-1" d="M0,108.82v6.69c0,67.44,66.84,122.31,149,122.31a182.16,182.16,0,0,0,23.9-1.57,170.24,170.24,0,0,0,49.69-14.5c15.95-7.46,30.06-16.94,41.63-28.93h0a113.86,113.86,0,0,0,27.52-42.31,101.79,101.79,0,0,0,6-28c.16-2.31.24-4.61.24-7v-6.69Zm203.8,89.54A7,7,0,0,1,201,185c19.07-8.37,34.41-21,44.35-36.44a7,7,0,0,1,11.78,7.57c-11.44,17.8-28.9,32.21-50.5,41.69a7,7,0,0,1-2.81.59ZM184.43,75.76a7,7,0,0,1-4.05-12.71l1-.71a11.42,11.42,0,0,0,5.12-9.14,11.23,11.23,0,0,0-4.94-9.2l-1.78-1.31a25.14,25.14,0,0,1-10.64-21,25.31,25.31,0,0,1,11.7-20.56,7,7,0,1,1,7.76,11.65,11.5,11.5,0,0,0-5.46,9.23,11.33,11.33,0,0,0,4.94,9.35l1.78,1.31a24.85,24.85,0,0,1-.38,41l-1,.71a7,7,0,0,1-4,1.29Zm-71.84,2a7,7,0,0,1-4.05-12.71l1-.71a11.42,11.42,0,0,0,5.12-9.14,11.23,11.23,0,0,0-4.94-9.2l-1.78-1.31a25.14,25.14,0,0,1-10.64-21A25.31,25.31,0,0,1,109,3.2a7,7,0,0,1,7.76,11.65,11.5,11.5,0,0,0-5.46,9.23,11.33,11.33,0,0,0,4.94,9.35L118,34.74a24.86,24.86,0,0,1-.38,41l-1,.71a7,7,0,0,1-4,1.29Zm36,0a7,7,0,0,1-4.05-12.71l1-.71a11.41,11.41,0,0,0,5.12-9.14,11.23,11.23,0,0,0-4.94-9.2L144,44.71a25.14,25.14,0,0,1-10.64-21A25.31,25.31,0,0,1,145,3.2a7,7,0,1,1,7.76,11.65,11.5,11.5,0,0,0-5.46,9.23,11.33,11.33,0,0,0,4.94,9.35L154,34.74a24.86,24.86,0,0,1-.38,41l-1,.71a7,7,0,0,1-4,1.29ZM256,181.64h0A119.2,119.2,0,0,1,244.62,192c-19.11,15.42-44,26.2-71.72,30.19a165.83,165.83,0,0,1-23.9,1.69A166.5,166.5,0,0,1,123.21,222c-59.37-9.24-105-50.17-108.93-99.17H283.72C282,144.82,271.88,165.09,256,181.64Z"/></g></g><text x="0" y="252.82" fill="#000000" font-size="5px" font-weight="bold" font-family="'Helvetica Neue', Helvetica, Arial-Unicode, Arial, Sans-serif">Created by Evgenii Likhachov</text><text x="0" y="257.82" fill="#000000" font-size="5px" font-weight="bold" font-family="'Helvetica Neue', Helvetica, Arial-Unicode, Arial, Sans-serif">from the Noun Project</text></svg>