<svg xmlns="http://www.w3.org/2000/svg" xmlns:xlink="http://www.w3.org/1999/xlink" version="1.1" x="0px" y="0px" viewBox="0 0 100 125" enable-background="new 0 0 100 100" xml:space="preserve"><g><g><path d="M50,6C25.7,6,6,25.7,6,50s19.7,44,44,44s44-19.7,44-44S74.3,6,50,6z M15.7,50C15.7,31,31,15.7,50,15.7    c8.8,0,16.9,3.3,22.9,8.8L23.8,72.1C18.7,66.2,15.7,58.4,15.7,50z M50,84.3c-9.1,0-17.3-3.5-23.5-9.3l49.2-47.7    c5.3,6,8.6,14,8.6,22.7C84.3,69,69,84.3,50,84.3z"/><path d="M65.6,28.8c-1-1.5-2.2-2.5-3.5-2.5c-3.5,0-6.3,7.3-6.3,10.7c0,0.4,0,0.7,0.1,1.1L65.6,28.8z"/><path d="M68.4,37.3l-8.3,8V51c-0.3,0.4-0.6,0.9-0.7,1.5l-2,14.9c-0.3,3.5,1.9,6.5,4.7,6.5c2.8,0,5-3,4.7-6.5l-2.1-14.9    c-0.1-0.6-0.3-1.1-0.7-1.5v-7C66.6,43,68.3,40,68.4,37.3z"/><path d="M42.9,61.9L34.5,70c0.7,2.2,2.4,3.8,4.4,3.8c2.8,0,5-3,4.7-6.5L42.9,61.9z"/><path d="M36.4,44.9H37V51c-0.3,0.4-0.6,0.9-0.7,1.5l-0.8,5.4l6-5.8c-0.1-0.4-0.3-0.8-0.6-1.1v-6.1h0.6c3.1,0,5.7-2.3,5.7-5.2V28    c0-1.1-0.9-2-2-2c-1.1,0-2,0.9-2,2v11.8c0,0.6-0.8,1.2-1.7,1.2H41V28c0-1.1-0.9-2-2-2c-1.1,0-2,0.9-2,2v13h-0.5    c-0.9,0-1.7-0.6-1.7-1.2V28c0-1.1-0.9-2-2-2c-1.1,0-2,0.9-2,2v11.8C30.7,42.6,33.3,44.9,36.4,44.9z"/></g></g><text x="0" y="115" fill="#000000" font-size="5px" font-weight="bold" font-family="'Helvetica Neue', Helvetica, Arial-Unicode, Arial, Sans-serif">Created by Wira</text><text x="0" y="120" fill="#000000" font-size="5px" font-weight="bold" font-family="'Helvetica Neue', Helvetica, Arial-Unicode, Arial, Sans-serif">from the Noun Project</text></svg>