<svg xmlns="http://www.w3.org/2000/svg" xmlns:xlink="http://www.w3.org/1999/xlink" viewBox="0 0 100 125" version="1.1" x="0px" y="0px"><title>35</title><desc>Created with Sketch.</desc><g stroke="none" stroke-width="1" fill="none" fill-rule="evenodd"><g fill="#000000"><path d="M74.1961457,57.2748627 C74.1961457,59.0311373 72.7718684,60.4599608 71.021182,60.4599608 L37.4479548,60.4599608 C35.6972684,60.4599608 34.2729911,59.0311373 34.2729911,57.2748627 L34.2729911,56.3576078 C34.2729911,55.9989804 34.5638275,55.7072157 34.9215093,55.7072157 L73.5478229,55.7072157 C73.9053093,55.7072157 74.1961457,55.9989804 74.1961457,56.3576078 L74.1961457,57.2748627 Z M34.266932,30.8064314 C34.9736957,28.5356471 36.4595411,25.2813333 39.5238775,22.6732941 C43.0981548,19.6317255 48.0474548,18.0893725 54.2345684,18.0893725 C60.421682,18.0893725 65.3711775,19.6317255 68.9452593,22.6732941 C72.0095957,25.2813333 73.4954411,28.5356471 74.2022048,30.8064314 L74.2024002,30.8064314 C74.4250229,31.5215294 74.1138593,32.1340784 73.9469411,32.253098 L34.5223911,32.253098 C34.3552775,32.1338824 34.0443093,31.5215294 34.266932,30.8064314 L34.266932,30.8064314 Z M74.9425866,36.1746667 C75.3884184,36.1746667 75.7509866,36.5383922 75.7509866,36.9856471 L75.7509866,37.6409412 C75.7509866,38.0881961 75.3884184,38.4521176 74.9425866,38.4521176 L33.5265502,38.4521176 C33.0809138,38.4521176 32.7181502,38.0881961 32.7181502,37.6409412 L32.7181502,36.9856471 C32.7181502,36.5383922 33.0809138,36.1746667 33.5265502,36.1746667 L34.4850593,36.1746667 L73.9840775,36.1746667 L74.9425866,36.1746667 Z M36.6442457,49.6750588 C37.3889275,49.6232941 38.1226638,49.4848627 38.8280593,49.2670196 C38.9117138,49.2419216 38.9949775,49.2156471 39.0782411,49.1881961 C39.0921184,49.1834902 39.1063866,49.1787843 39.1204593,49.1740784 C40.0756457,48.8525098 41.0067911,48.3750588 41.8447048,47.7164314 C41.9924684,47.8268235 42.1505911,47.9387843 42.3192684,48.0503529 C44.0492366,49.1946667 46.1407957,49.7995686 48.3676093,49.7995686 C51.0308729,49.7995686 52.9566866,48.9383922 54.2345684,47.9293725 C55.5124502,48.9383922 57.4384593,49.7995686 60.1017229,49.7995686 C60.2696184,49.7995686 60.4365366,49.7950588 60.6024775,49.788 C60.6575957,49.7860392 60.7117366,49.7827059 60.7662684,49.7797647 C60.8704457,49.7740784 60.9744275,49.7670196 61.0780184,49.7585882 C61.1470138,49.753098 61.2162048,49.7474118 61.2842229,49.7407451 C61.3647502,49.732902 61.4446911,49.723098 61.5248275,49.7134902 C61.7236048,49.6897647 61.9190593,49.6623137 62.1088457,49.6297647 C62.1207684,49.6276078 62.1328866,49.6260392 62.1448093,49.6238824 C62.2466411,49.6060392 62.3463229,49.5860392 62.4458093,49.5658431 C62.4897866,49.5566275 62.5339593,49.5481961 62.5777411,49.5385882 C62.6701911,49.5185882 62.7612729,49.4974118 62.8513775,49.475451 C62.9047366,49.4623137 62.9579002,49.4489804 63.0108684,49.4352549 C63.0908093,49.4144706 63.1701638,49.3934902 63.2479548,49.3713333 C63.3216411,49.350549 63.3945457,49.3283922 63.4674502,49.3060392 C63.5225684,49.2891765 63.577882,49.2727059 63.631632,49.2552549 C64.5299411,48.9650588 65.3762593,48.5621176 66.1498684,48.0503529 C66.3185457,47.9387843 66.4766684,47.8268235 66.6242366,47.7164314 C67.4644957,48.3768235 68.3985729,48.8552549 69.3563002,49.1766275 C69.3627502,49.1787843 69.3690048,49.1809412 69.3754548,49.183098 C69.4700548,49.2148627 69.5652411,49.2446667 69.6604275,49.273098 C70.3599593,49.4874118 71.0872457,49.6236863 71.8248911,49.6748627 L71.8248911,51.7856471 L36.6442457,51.7856471 L36.6442457,49.6750588 Z M75.3817729,44.5146667 C75.108332,45.0797647 74.3892548,45.5115294 73.457132,45.6895686 C73.4471638,45.6913333 73.4371957,45.6915294 73.427032,45.6934902 C71.9353229,45.9683922 69.8146411,45.5756471 68.4818366,44.1142745 C68.4800775,44.1123137 68.4779275,44.1103529 68.4759729,44.1085882 C68.387432,44.0109412 68.3024093,43.9085882 68.2211002,43.8013333 C67.8405502,43.2993725 67.2635684,42.9897647 66.6301002,43.0052549 C66.1619866,43.0174118 65.727882,43.1848627 65.3907229,43.4850588 C65.278532,43.5852549 65.1767002,43.7001569 65.0881593,43.8287843 C65.0791684,43.8401569 65.0645093,43.8581961 65.0445729,43.8817255 C65.0297184,43.8991765 65.0086093,43.9227059 64.9878911,43.9458431 C64.9802684,43.9542745 64.975382,43.9601569 64.9669775,43.9693725 C64.958182,43.9787843 64.9454775,43.9917255 64.9357048,44.0021176 C64.9036502,44.0360392 64.8672957,44.0732941 64.8258593,44.1146667 C64.2471184,44.6862353 62.7270684,45.8778039 60.1017229,45.8778039 C57.1333548,45.8778039 56.1156229,44.3346667 55.9889684,44.120549 C55.6813229,43.4017255 55.0161911,42.9346667 54.2345684,42.9346667 C53.4529457,42.9346667 52.7878138,43.4017255 52.4803638,44.1207451 C52.3814638,44.2878039 51.7393957,45.2644706 50.0512548,45.6852549 C50.0465638,45.6862353 50.0420684,45.6872157 50.0373775,45.6883922 C49.9762002,45.7034902 49.9132638,45.718 49.8491548,45.7315294 C49.8368411,45.7342745 49.824332,45.7364314 49.8120184,45.7389804 C49.753382,45.7511373 49.6941593,45.7625098 49.632982,45.7732941 C49.6148048,45.7762353 49.5960411,45.7793725 49.5776684,45.7823137 C49.5209866,45.7917255 49.4637184,45.8007451 49.4048866,45.8087843 C49.3806502,45.8123137 49.3554366,45.8150588 49.3310048,45.8181961 C49.2756911,45.8252549 49.2203775,45.8323137 49.1635002,45.8381961 C49.1347684,45.8409412 49.1054502,45.843098 49.0763275,45.8458431 C49.0210138,45.8507451 48.9660911,45.8560392 48.9090184,45.8597647 C48.8785275,45.8619216 48.8466684,45.862902 48.8155911,45.8648627 C48.7581275,45.8678039 48.7010548,45.8713333 48.6420275,45.8732941 C48.6218957,45.8738824 48.6007866,45.8736863 48.5804593,45.8742745 C48.5104866,45.8760392 48.4401229,45.8778039 48.3676093,45.8778039 C45.6996548,45.8778039 44.1706138,44.6456471 43.6133729,44.085451 C43.4849593,43.9564314 43.4079502,43.863098 43.3809775,43.8287843 C43.0264229,43.3138824 42.4633184,43.0215294 41.8390366,43.0052549 C41.6830638,43.0009412 41.5294366,43.0176078 41.3803048,43.0525098 C40.9321275,43.1562353 40.5339866,43.4238824 40.248232,43.8013333 C40.1669229,43.9085882 40.0819002,44.0107451 39.9933593,44.1081961 C39.9904275,44.1115294 39.9871048,44.1142745 39.9841729,44.1174118 C38.6517593,45.5760392 36.535182,45.9668235 35.0419093,45.6934902 C35.0321366,45.6917255 35.0223638,45.6913333 35.0123957,45.6897647 C34.0802729,45.5117255 33.3610002,45.0797647 33.0873638,44.5146667 C32.8096229,43.9407451 32.8551638,43.5423137 33.2560411,43.0446667 C33.4788593,42.768 33.7655911,42.535451 33.9913411,42.3776078 L74.4768184,42.3776078 C74.6797002,42.5185882 74.9439548,42.7276078 75.1661866,42.988 C75.6733911,43.5823137 75.6247229,44.0127059 75.3817729,44.5146667 L75.3817729,44.5146667 Z M79.6600775,36.9856471 C79.6600775,35.4707451 78.9458866,34.120549 77.8384411,33.2536863 C78.2578866,32.1246667 78.3047957,30.8297647 77.9338229,29.6376078 C77.0728457,26.8713333 75.2531638,22.8991765 71.4738548,19.6827059 C67.1738548,16.0232941 61.3735457,14.1678039 54.2345684,14.1678039 C47.0955911,14.1678039 41.295282,16.0232941 36.995282,19.6827059 C33.2159729,22.8991765 31.3962911,26.8713333 30.5353138,29.6376078 C30.1643411,30.8299608 30.2116411,32.1248627 30.6306957,33.2536863 C29.5232502,34.120549 28.8090593,35.4707451 28.8090593,36.9856471 L28.8090593,37.6409412 C28.8090593,38.8640784 29.2740457,39.980549 30.0359275,40.8215294 C29.0246457,42.2262353 28.5438275,44.105451 29.5711366,46.2276078 C30.1842775,47.4946667 31.3065775,48.4852549 32.7351548,49.0789804 L32.7351548,52.3472157 C31.3231911,53.1250588 30.3639002,54.6309412 30.3639002,56.3576078 L30.3639002,57.2748627 C30.3639002,61.1934902 33.5417957,64.3815294 37.4479548,64.3815294 L71.021182,64.3815294 C74.9273411,64.3815294 78.1052366,61.1934902 78.1052366,57.2748627 L78.1052366,56.3576078 C78.1052366,54.6309412 77.1459457,53.1250588 75.733982,52.3472157 L75.733982,49.0789804 C77.1625593,48.4852549 78.2848593,47.4946667 78.8981957,46.2276078 C79.9253093,44.105451 79.4446866,42.2262353 78.4332093,40.8215294 C79.1950911,39.980549 79.6600775,38.8640784 79.6600775,37.6409412 L79.6600775,36.9856471 Z M74.5017388,74.2011765 C74.2077752,74.5541176 74.0467207,74.9992157 74.0467207,75.4590196 L74.0467207,96.0784314 L39.4049434,96.0784314 L39.4049434,79.1078431 C39.4049434,78.5386275 39.1582798,77.9972549 38.7290616,77.624902 C38.2998434,77.252549 37.7308752,77.084902 37.1687479,77.1676471 L26.3100752,78.7529412 C25.0923934,78.8727451 23.9218161,78.4839216 23.0131479,77.6568627 C22.0962707,76.8221569 21.5966888,75.6782353 21.606657,74.4360784 C21.6074388,74.3347059 21.6004025,74.2333333 21.5855479,74.1329412 L19.5733434,60.5092157 C19.4312479,59.5478431 18.6087752,58.8358824 17.639907,58.8358824 L13.8199434,58.8358824 C12.7756298,58.8358824 11.8384252,58.2952941 11.3132388,57.39 C10.7876616,56.4845098 10.7819934,55.4 11.2977979,54.4890196 L19.2045207,40.5227451 C19.4793298,40.1660784 19.6270934,39.7198039 19.611457,39.2566667 C19.5960161,38.8005882 19.5887843,38.4243137 19.5887843,38.0721569 C19.5887843,19.2415686 34.8600388,3.92156863 53.6307116,3.92156863 C72.8034343,3.92156863 89.0009479,19.5605882 89.0009479,38.0721569 C89.0009479,49.1021569 83.038607,63.9592157 74.5017388,74.2011765 M81.0953979,11.1170588 C73.6937298,4.05196078 63.6833298,0 53.6307116,0 C32.7043707,0 15.6796934,17.0792157 15.6796934,38.0721569 C15.6796934,38.3015686 15.6822343,38.5382353 15.6879025,38.7937255 L7.89864794,52.5523529 C6.68780703,54.6911765 6.70129339,57.2370588 7.93480703,59.3627451 C9.16812521,61.4884314 11.3681616,62.757451 13.8199434,62.757451 L15.9535252,62.757451 L17.697957,74.567451 C17.7249298,76.8484314 18.6990752,79.025098 20.3864343,80.5611765 C22.1138616,82.1335294 24.4362525,82.895098 26.7547343,82.6494118 C26.7805343,82.6464706 26.8059434,82.6435294 26.8313525,82.6396078 L35.4958525,81.3747059 L35.4958525,98.0392157 C35.4958525,99.1221569 36.3709025,100 37.4503979,100 L76.0012661,100 C77.0805661,100 77.9558116,99.1221569 77.9558116,98.0392157 L77.9558116,76.1637255 C86.7850798,65.2986275 92.9100388,49.7411765 92.9100388,38.0721569 C92.9100388,27.9623529 88.7142161,18.3894118 81.0953979,11.1170588"/></g></g><text x="0" y="115" fill="#000000" font-size="5px" font-weight="bold" font-family="'Helvetica Neue', Helvetica, Arial-Unicode, Arial, Sans-serif">Created by AomAm</text><text x="0" y="120" fill="#000000" font-size="5px" font-weight="bold" font-family="'Helvetica Neue', Helvetica, Arial-Unicode, Arial, Sans-serif">from the Noun Project</text></svg>