<svg xmlns="http://www.w3.org/2000/svg" viewBox="0 0 228.66 292.175" x="0px" y="0px"><defs><style>.cls-1{fill-rule:evenodd;}</style></defs><title>Ресурс 24</title><g data-name="Слой 2"><g data-name="1"><path class="cls-1" d="M81,188.57a7,7,0,0,1-1.7-.21c-27.44-6.86-38-38.28-38.45-39.61a7,7,0,0,1,13.3-4.37c.15.45,8.75,25.45,28.55,30.4A7,7,0,0,1,81,188.57ZM0,104.5c0,.29,0,.57,0,.86,0,.64,0,1.29.05,1.93,0,.35,0,.69,0,1q0,.88.08,1.76,0,.54.06,1.07.05.87.12,1.74c0,.34,0,.69.08,1,0,.63.1,1.25.16,1.87,0,.29,0,.58.08.86Q.84,118,1,119.36v0H1q.15,1.34.33,2.68c0,.3.08.6.12.9.08.6.17,1.2.26,1.79.05.34.1.68.16,1q.13.82.27,1.65l.18,1.06q.14.81.29,1.61l.2,1q.17.86.34,1.71l.19.9q.24,1.16.51,2.3l.1.43q.28,1.19.57,2.38l.23.89c.14.55.28,1.1.43,1.65l.28,1q.21.75.42,1.49l.31,1q.22.74.45,1.48l.31,1c.16.51.33,1,.5,1.53l.31.93q.35,1,.72,2.07l.18.5q.39,1.09.79,2.16l.37,1,.55,1.41.42,1,.54,1.3.44,1,.55,1.27.46,1,.58,1.26.47,1c.24.51.49,1,.73,1.52l.61,1.24q.39.79.79,1.57l.53,1,.61,1.15.58,1.06.6,1.08.6,1.05.63,1.07.61,1,.66,1.08.61,1,.7,1.09,1.11,1.69.74,1.09.7,1,.65.93.75,1,.64.87.77,1,.65.85.79,1,.66.82.81,1L31,192q.88,1,1.77,2.06l.5.57.92,1,.62.68.93,1,.64.67.94,1,.65.65,1,.94.64.61,1,.94.47.43q1.19,1.09,2.41,2.13l.31.27,1.12.93.59.48,1.11.88.62.49,1.09.84.67.5,1.12.82.59.42,1.21.84.34.23q2.15,1.46,4.37,2.78l.61.36,1.21.7.65.37,1.24.68.64.34,1.26.65.6.3,1.34.65.27.12q1.69.79,3.4,1.51H24.67a7,7,0,0,0,0,14H168a7,7,0,0,0,0-14H130.22l.61-.26.46-.2h0l.55-.24h0l.42-.19.65-.29.36-.17.47-.22.6-.29.39-.19.55-.27.5-.25.42-.22.54-.28.44-.23.61-.33.37-.2.57-.31.44-.25.47-.27.48-.28.53-.31.35-.21.61-.36.31-.19.68-.42.25-.16.68-.43.3-.19.69-.44.24-.16.73-.49.19-.13.67-.45.18-.12.71-.49.23-.16.71-.51.2-.14.71-.52.25-.19.71-.53.15-.11.76-.59.15-.11.72-.57.07-.05h0l.75-.61.15-.12.74-.61.15-.13.73-.62.15-.13.73-.63.14-.12.75-.66.08-.07.77-.69,0,0h0l.76-.7.09-.08.77-.72.07-.07.74-.72.12-.12.7-.69.13-.13.73-.73,0,0,.78-.8c24-.06,60-12.33,65.78-47,3.15-18.78-3.29-28.87-9.25-34a31.55,31.55,0,0,0-20.77-7.24c.12-2.51.19-5,.19-7.59V95.07H0v6.62q0,1.41,0,2.81Zm119.2-28.74a7,7,0,0,1-4.05-12.71l1-.71a11.41,11.41,0,0,0,5.12-9.14,11.23,11.23,0,0,0-4.94-9.2l-1.78-1.31a25.14,25.14,0,0,1-10.64-21,25.31,25.31,0,0,1,11.7-20.56,7,7,0,0,1,7.76,11.65,11.5,11.5,0,0,0-5.46,9.23,11.33,11.33,0,0,0,4.94,9.35l1.78,1.31a24.86,24.86,0,0,1-.38,41l-1,.71a7,7,0,0,1-4,1.29Zm36,0a7,7,0,0,1-4.05-12.71l1-.71a11.41,11.41,0,0,0,5.12-9.14,11.23,11.23,0,0,0-4.94-9.2l-1.78-1.31a25.14,25.14,0,0,1-10.64-21,25.31,25.31,0,0,1,11.7-20.56,7,7,0,1,1,7.76,11.65A11.5,11.5,0,0,0,154,22.06a11.33,11.33,0,0,0,4.94,9.35l1.78,1.31a24.85,24.85,0,0,1-.38,41l-1,.71a7,7,0,0,1-4,1.29Zm-43,135.14c38.82-7.94,69-50.83,71.49-101.83H14.23C17,166.07,54,212.35,99,212.35a65.08,65.08,0,0,0,13.28-1.45ZM214,148.22h0c-2,11.76-8.87,21-20.5,27.39a65.52,65.52,0,0,1-19.23,6.73c11.22-16.52,19.07-36.74,22.2-59,3.94-.31,9.19.55,12.93,3.77C215.3,132.19,215.17,141.4,214,148.22Z"/></g></g><text x="0" y="248.74" fill="#000000" font-size="5px" font-weight="bold" font-family="'Helvetica Neue', Helvetica, Arial-Unicode, Arial, Sans-serif">Created by Evgenii Likhachov</text><text x="0" y="253.74" fill="#000000" font-size="5px" font-weight="bold" font-family="'Helvetica Neue', Helvetica, Arial-Unicode, Arial, Sans-serif">from the Noun Project</text></svg>