<svg xmlns="http://www.w3.org/2000/svg" width="295" height="295" style=""><rect id="backgroundrect" width="100%" height="100%" x="0" y="0" fill="none" stroke="none" class="" style=""/><defs><style>.cls-1{fill-rule:evenodd;}</style></defs><title>Ресурс 23</title><g class="currentLayer" style=""><title>Layer 1</title><g data-name="Слой 2" id="svg_1" class="selected"><g data-name="1" id="svg_2"><path class="cls-1" d="M242.7370654296875,157.94145483016968 l-0.06000000000000004,-0.3900000000000003 c-3.09,-18.79 -12.5,-26.25 -19.8,-29.2 a31,31 0 0 0 -19.78,-0.8500000000000004 v-35 H116.6170654296875 V87.00145483016968 a7,7 0 1 0 -14,0 v5.5 H57.097065429687504 V239.37145483016968 A43.7,43.7 0 0 0 59.6170654296875,253.66145483016967 a42.14,42.14 0 0 0 32.94,27.41 H58.6170654296875 a7,7 0 1 0 0,14 H201.9470654296875 a7,7 0 1 0 0,-14 H168.1270654296875 a40,40 0 0 0 17.43,-7.22 a42.74,42.74 0 0 0 17.54,-34.48 V220.19145483016968 c12.41,-5.85 25.76,-15.870000000000001 33.55,-29.47 a49.16,49.16 0 0 0 6.09,-32.78 zM164.8570654296875,75.76145483016968 a7,7 0 0 1 -4.05,-12.71 l1,-0.7100000000000004 a11.41,11.41 0 0 0 5.12,-9.14 a11.23,11.23 0 0 0 -4.94,-9.2 l-1.78,-1.31 A25.14,25.14 0 0 1 149.6170654296875,21.731454830169678 a25.31,25.31 0 0 1 11.7,-20.56 a7,7 0 1 1 7.76,11.65 A11.5,11.5 0 0 0 163.6170654296875,22.061454830169676 a11.33,11.33 0 0 0 4.94,9.35 l1.78,1.31 a24.86,24.86 0 0 1 -0.3800000000000002,41 l-1,0.7100000000000004 a7,7 0 0 1 -4,1.29 zm-36,0 a7,7 0 0 1 -4.05,-12.71 l1,-0.7100000000000004 a11.42,11.42 0 0 0 5.12,-9.14 A11.23,11.23 0 0 0 125.9770654296875,44.00145483016968 l-1.78,-1.31 a25.14,25.14 0 0 1 -10.64,-21 A25.31,25.31 0 0 1 125.2570654296875,1.1714548301696777 a7,7 0 1 1 7.76,11.65 a11.5,11.5 0 0 0 -5.46,9.23 a11.33,11.33 0 0 0 4.94,9.35 l1.78,1.31 a24.86,24.86 0 0 1 -0.3800000000000002,41 l-1,0.7100000000000004 a7,7 0 0 1 -4,1.29 zM86.09706542968749,124.53145483016968 v55 h47 v-55 H116.6170654296875 v-18 h72.5 V239.37145483016968 h0 c0,15.07 -12,28.16 -27,28.16 H98.6170654296875 c-13.06,0 -24.12,-9.63 -26.79,-21.91 a30.72,30.72 0 0 1 -0.7500000000000004,-6.25 V106.53145483016968 H102.6170654296875 v18 zm33,41 h-19 v-27 h19 v27 zm-10,89.37 a24.31,24.31 0 0 1 -15.69,-5.3100000000000005 C87.1670654296875,244.3614548301697 84.1870654296875,236.00145483016968 84.6170654296875,224.78145483016968 a7,7 0 0 1 14,0.51 c-0.17,4.59 0.3600000000000002,10.67 3.81,13.54 s9.12,1.8900000000000001 9.18,1.87 a7,7 0 1 1 3,13.67 a26.49,26.49 0 0 1 -5.48,0.53 zm109.19,-62.53 h0 a60.4,60.4 0 0 1 -15.23,12 V142.46145483016969 c4,-1.57 10.05,-3 14.63,-1.13 c7.2,2.91 10,11.67 11.17,18.49 C230.8270654296875,171.59145483016968 227.2570654296875,182.54145483016967 218.3270654296875,192.37145483016968 z" id="svg_3"/></g></g></g></svg>